<?xml version="1.0" standalone="no"?>
<!DOCTYPE svg PUBLIC "-//W3C//DTD SVG 20010904//EN"
 "http://www.w3.org/TR/2001/REC-SVG-20010904/DTD/svg10.dtd">
<svg version="1.0" xmlns="http://www.w3.org/2000/svg"
 width="500.000000pt" height="500.000000pt" viewBox="0 0 500.000000 500.000000"
 preserveAspectRatio="xMidYMid meet">
<metadata>
Created by potrace 1.14, written by Peter Selinger 2001-2017
</metadata>
<g transform="translate(0.000000,500.000000) scale(0.100000,-0.100000)"
fill="#000000" stroke="none">
<path d="M2170 3852 c-27 -13 -51 -46 -115 -152 -44 -74 -137 -223 -206 -330
-69 -107 -134 -209 -144 -227 -27 -46 -55 -56 -127 -42 -88 18 -248 6 -330
-24 -119 -43 -218 -137 -234 -224 -15 -82 22 -212 82 -281 19 -23 60 -56 90
-74 30 -18 54 -40 54 -48 0 -52 -271 -426 -500 -693 -40 -46 -50 -65 -50 -93
0 -50 45 -94 96 -94 35 0 46 8 124 88 101 102 272 329 457 602 72 107 142 205
155 216 12 12 73 43 133 69 173 74 162 70 179 56 29 -24 134 -217 319 -586
102 -203 205 -398 229 -432 67 -96 152 -187 211 -226 65 -43 168 -80 202 -71
42 10 75 52 75 95 0 48 -29 80 -92 103 -53 19 -114 65 -157 116 l-28 35 42 -3
c26 -2 55 3 74 12 17 9 138 119 269 244 245 234 356 322 467 366 33 14 61 23
63 22 2 -2 -26 -66 -61 -142 -36 -77 -79 -182 -97 -234 -30 -88 -32 -97 -21
-146 7 -29 21 -64 33 -79 72 -91 232 -86 383 13 81 54 222 191 318 310 54 68
67 91 67 119 0 67 -80 115 -140 83 -10 -5 -49 -49 -88 -97 -125 -157 -274
-284 -349 -299 -18 -4 -33 -4 -33 -1 0 20 60 167 103 252 90 181 109 274 67
343 -47 76 -119 93 -243 57 -106 -30 -147 -50 -250 -121 -43 -30 -80 -54 -82
-54 -2 0 -3 15 -2 34 3 97 -126 137 -172 53 -9 -16 -100 -156 -203 -311 -102
-155 -190 -298 -195 -317 -9 -34 -9 -34 -85 111 -121 232 -412 802 -426 834
-7 15 -10 36 -7 46 5 17 325 239 880 611 246 165 397 252 545 314 90 38 118
60 126 99 8 43 -18 93 -54 107 -39 15 -75 7 -197 -45 -188 -81 -254 -121 -740
-452 -680 -465 -687 -468 -723 -432 -27 27 -11 67 94 234 327 521 356 575 340
638 -12 49 -76 74 -126 48z m-659 -953 c26 -14 19 -34 -44 -129 -62 -94 -70
-100 -128 -100 -57 0 -90 24 -113 81 -19 47 -9 79 36 112 53 39 203 61 249 36z"/>
</g>
</svg>
